HIERARCHY
ROOT Hips
{
  OFFSET 265.287 66.7526 -254.649
  CHANNELS 6 Xposition Yposition Zposition Zrotation Xrotation Yrotation
  JOINT LeftUpLeg
  {
    OFFSET 8.64259 1.95398 -2.38835
    CHANNELS 3 Zrotation Xrotation Yrotation
    JOINT LeftLeg
    {
      OFFSET 43.7702 0 0
      CHANNELS 3 Zrotation Xrotation Yrotation
      JOINT LeftFoot
      {
        OFFSET 40.6238 0 0
        CHANNELS 3 Zrotation Xrotation Yrotation
        JOINT LeftToeBase
        {
          OFFSET 12.7242 0 0
          CHANNELS 3 Zrotation Xrotation Yrotation
          End Site
          {
            OFFSET 0 0 0
          }
        }
      }
    }
  }
  JOINT RightUpLeg
  {
    OFFSET -8.2249 1.95398 -2.59336
    CHANNELS 3 Zrotation Xrotation Yrotation
    JOINT RightLeg
    {
      OFFSET 43.5653 0 0
      CHANNELS 3 Zrotation Xrotation Yrotation
      JOINT RightFoot
      {
        OFFSET 40.6238 0 0
        CHANNELS 3 Zrotation Xrotation Yrotation
        JOINT RightToeBase
        {
          OFFSET 12.7242 0 0
          CHANNELS 3 Zrotation Xrotation Yrotation
          End Site
          {
            OFFSET 0 0 0
          }
        }
      }
    }
  }
  JOINT Spine
  {
    OFFSET 0.165834 0.87714 6.61349
    CHANNELS 3 Zrotation Xrotation Yrotation
    JOINT Spine1
    {
      OFFSET 7.38963 1.71661e-005 0
      CHANNELS 3 Zrotation Xrotation Yrotation
      JOINT Spine2
      {
        OFFSET 11.9445 1.14441e-005 0
        CHANNELS 3 Zrotation Xrotation Yrotation
        JOINT Spine3
        {
          OFFSET 14.7254 4.19617e-005 0
          CHANNELS 3 Zrotation Xrotation Yrotation
          JOINT Spine4
          {
            OFFSET 10.9679 0 0
            CHANNELS 3 Zrotation Xrotation Yrotation
            JOINT RightShoulder
            {
              OFFSET 2.46616 -1.6653 3.69651
              CHANNELS 3 Zrotation Xrotation Yrotation
              JOINT RightArm
              {
                OFFSET 13.0012 0 0
                CHANNELS 3 Zrotation Xrotation Yrotation
                JOINT RightForeArm
                {
                  OFFSET 28.7848 1.52588e-005 0
                  CHANNELS 3 Zrotation Xrotation Yrotation
                  JOINT RightHand
                  {
                    OFFSET 26.5688 1.52588e-005 0
                    CHANNELS 3 Zrotation Xrotation Yrotation
                    End Site
                    {
                      OFFSET 0 0 0
                    }
                  }
                }
              }
            }
            JOINT LeftShoulder
            {
              OFFSET 2.38034 -1.29275 -3.7523
              CHANNELS 3 Zrotation Xrotation Yrotation
              JOINT LeftArm
              {
                OFFSET 16.3182 6.10351e-005 0
                CHANNELS 3 Zrotation Xrotation Yrotation
                JOINT LeftForeArm
                {
                  OFFSET 27.0901 0 0
                  CHANNELS 3 Zrotation Xrotation Yrotation
                  JOINT LeftHand
                  {
                    OFFSET 24.5451 1.52588e-005 0
                    CHANNELS 3 Zrotation Xrotation Yrotation
                    End Site
                    {
                      OFFSET 0 0 0
                    }
                  }
                }
              }
            }
            JOINT Neck
            {
              OFFSET 5.0226 -0.0266342 0
              CHANNELS 3 Zrotation Xrotation Yrotation
              JOINT Head
              {
                OFFSET 6.69364 2.86102e-005 0
                CHANNELS 3 Zrotation Xrotation Yrotation
                End Site
                {
                  OFFSET 0 0 0
                }
              }
            }
          }
        }
      }
    }
  }
}
MOTION
Frames:	15
Frame Time:	0.0416667
-294.281 59.8401 305.368 91.292 58.8638 93.5912 -130.787 -16.3844 157.479 90.2836 2.05704 -90.1855 42.8887 37.9559 54.5621 31.3392 -0.570431 -2.48331 -173.775 -0.962938 128.561 -35.6628 59.2024 -56.3937 174.481 38.5661 177.912 148.16 56.4307 60.84 0.0283433 2.64301 -89.5496 21.5859 0.303941 0.852229 9.91474 0.341145 0.838027 -12.6182 0.0337638 0.904169 7.39447 0.0337662 0.90417 115.462 -1.77895 -34.4998 95.0741 -20.0952 2.62348 -131.118 -55.5935 -130.638 -15.8818 6.95645 -54.0623 -66.7433 -19.2529 122.492 -86.1048 64.2046 47.7222 10.7079 0.624983 -56.6031 19.2788 -15.7897 -75.9618 -61.2014 -7.87261 -9.5535 -1.5266 -13.0733 -10.3123 
-294.58 59.6497 305.698 91.2665 58.8762 93.6615 -130.805 -16.1969 157.071 91.4941 2.2134 -90.233 42.4336 38.6032 56.9223 30.716 -0.350868 -2.60752 -173.69 -1.43247 129.109 -35.9784 58.5525 -56.2556 174.306 37.025 177.708 148.47 56.4268 60.6102 0.0231039 2.63867 -89.5622 21.5948 0.287015 0.830424 9.92359 0.323297 0.816969 -12.6094 0.024158 0.878296 7.4032 0.0241814 0.878279 115.435 -1.74331 -34.5387 95.0618 -20.1092 2.61583 -133.29 -54.4021 -132.413 -15.7495 6.86218 -53.8539 -66.7165 -19.306 122.529 -86.7205 64.3012 48.5325 9.8547 -0.266767 -56.7697 18.9536 -15.6781 -76.4118 -61.1548 -7.91196 -9.4715 -1.52524 -13.069 -10.2587 
-295.443 59.0903 306.654 91.1903 58.9146 93.8684 -130.907 -15.5338 155.711 95.1909 2.7785 -90.4283 40.8574 40.6497 64.3945 28.3388 0.57228 -3.71029 -173.424 -2.80775 130.7 -36.8038 56.6652 -55.9611 173.694 32.5342 177.122 149.76 56.2756 59.5546 0.00790118 2.62605 -89.5988 21.6203 0.237101 0.767084 9.94916 0.270658 0.7559 -12.5842 -0.00438861 0.802888 7.42847 -0.00438474 0.802884 115.359 -1.64185 -34.6501 95.022 -20.1528 2.59664 -138.571 -50.9862 -136.61 -15.3482 6.59439 -53.3153 -66.6388 -19.4601 122.636 -88.5426 64.5522 50.9145 7.21084 -2.89991 -57.3581 17.9323 -15.2837 -77.7393 -61.016 -8.02788 -9.23074 -1.52526 -13.0575 -10.1053 
-296.798 58.2037 308.145 91.0621 58.9809 94.2067 -131.265 -14.0214 153.079 101.741 3.89036 -90.9867 37.2733 44.514 78.189 22.7916 3.26036 -8.01117 -172.896 -5.08637 133.216 -37.7897 53.6461 -55.7386 172.354 25.3116 176.208 153.217 55.4447 56.4723 -0.0174053 2.60599 -89.6578 21.6609 0.15551 0.665521 9.9898 0.184672 0.65801 -12.544 -0.0516951 0.681486 7.46866 -0.0516802 0.681482 115.241 -1.48297 -34.8255 94.9503 -20.2291 2.5714 -144.674 -45.9009 -141.179 -14.689 6.19641 -52.6425 -66.5139 -19.7067 122.807 -91.5661 64.863 54.8223 2.34409 -7.26492 -58.6911 16.0257 -14.3941 -79.9205 -60.7838 -8.21802 -8.83578 -1.53735 -13.0401 -9.86963 
-298.516 57.1878 309.966 90.88 59.0771 94.672 -132.071 -11.218 149.492 111.703 5.00858 -92.1771 30.19 50.1266 98.1914 12.5372 10.2847 -17.5645 -171.831 -8.36557 136.435 -38.0892 49.5711 -55.8156 169.695 15.769 175.025 160.495 52.6004 49.6567 -0.0524679 2.57923 -89.7373 21.715 0.0434144 0.528988 10.044 0.0666423 0.526565 -12.4904 -0.117566 0.51758 7.52229 -0.117569 0.517572 115.086 -1.27484 -35.0559 94.8425 -20.3414 2.54454 -150.038 -40.0975 -144.849 -13.8507 5.7381 -52.0285 -66.3454 -20.0367 123.037 -95.7828 65.0968 60.2031 -5.73406 -13.3086 -61.4922 12.8958 -12.5783 -82.8278 -60.4543 -8.48032 -8.28679 -1.57669 -13.0179 -9.57558 
-300.501 56.3346 311.926 90.6402 59.2051 95.2612 -133.199 -7.50115 146.549 124.997 4.81234 -93.5725 21.0715 57.6446 118.368 -4.2837 24.9034 -28.0099 -169.851 -12.6121 140.103 -36.5411 44.5528 -56.462 164.928 4.64263 173.417 171.657 44.8978 38.8354 -0.0972597 2.54649 -89.8359 21.7811 -0.0980462 0.360712 10.1101 -0.082092 0.364677 -12.4248 -0.201924 0.314567 7.58786 -0.201928 0.314569 114.902 -1.0251 -35.3329 94.6946 -20.4928 2.51926 -154.196 -34.4741 -147.383 -12.9562 5.28782 -51.5762 -66.1364 -20.4413 123.321 -101.098 65.0843 66.9158 -18.7344 -20.4621 -67.1532 8.16756 -9.2145 -86.0067 -60.0205 -8.81236 -7.58112 -1.66066 -12.9913 -9.24952 
-302.787 55.6586 314.068 90.3379 59.3663 95.9723 -134.414 -3.76177 145.376 137.162 3.35709 -93.8648 22.2119 73.6864 122.615 -39.255 43.2421 -18.7145 -166.777 -17.4703 144.164 -32.3686 39.0232 -58.0478 157.386 -7.09086 170.786 -177.16 28.4108 27.141 -0.151584 2.50831 -89.9518 21.8575 -0.267698 0.163919 10.1866 -0.260235 0.175535 -12.3488 -0.304588 0.0758894 7.66388 -0.304593 0.0758734 114.694 -0.74108 -35.6476 94.503 -20.6861 2.49808 -157.234 -29.5595 -149.007 -12.1107 4.88851 -51.2987 -65.8896 -20.9113 123.655 -107.249 64.6451 74.6473 -38.5546 -26.5808 -77.4511 1.76737 -3.28011 -87.323 -59.4733 -9.21055 -6.71455 -1.80771 -12.9602 -8.91851 
-305.358 55.122 316.413 89.967 59.5619 96.8039 -135.723 -0.0615626 145.561 121.874 2.60625 -91.6159 168.196 53.0359 -21.9456 -93.2233 25.3557 22.1744 -162.49 -22.5 148.46 -25.0399 33.5848 -60.1802 146.584 -18.3664 166.946 -171.209 3.33687 17.8712 -0.215282 2.46547 -90.0831 21.943 -0.46421 -0.0580094 10.2721 -0.466317 -0.0375108 -12.2636 -0.425328 -0.194839 7.74907 -0.425322 -0.194846 114.468 -0.430139 -35.9915 94.2646 -20.924 2.483 -159.392 -25.5122 -150.003 -11.369 4.55446 -51.1615 -65.6085 -21.4376 124.032 -113.782 63.626 82.8925 -63.5789 -27.6655 -91.4791 -5.62886 2.2915 -85.7994 -58.8026 -9.66943 -5.68237 -2.03673 -12.9237 -8.60904 
-308.101 54.779 318.926 89.5202 59.7927 97.7559 -136.996 3.62431 146.136 80.9538 0.144071 -90.1554 166.793 -21.8332 -30.6585 -81.4867 -37.7016 53.8028 -157.015 -27.1888 152.555 -14.2122 29.1196 -61.5245 133.162 -28.7323 162.849 -173.09 -21.0319 10.28 -0.287991 2.41855 -90.2282 22.0362 -0.686093 -0.301585 10.3654 -0.698719 -0.271098 -12.1705 -0.563746 -0.493855 7.84211 -0.563756 -0.493847 114.231 -0.0994719 -36.3563 93.9764 -21.2087 2.47567 -160.899 -22.2694 -150.589 -10.7415 4.28168 -51.1222 -65.2956 -22.0111 124.449 -120.153 61.9393 91.0538 -86.2615 -22.3179 -103.432 -12.524 8.00337 -81.4415 -57.9971 -10.1809 -4.48068 -2.3653 -12.8799 -8.3442 
-310.995 54.4862 321.68 88.9891 60.0588 98.8291 -138.036 6.98451 146.426 155.445 -1.6425 -87.4339 162.521 24.3924 -11.0196 8.03354 -36.3945 126.727 -150.806 -31.0427 156.021 -0.557796 27.1027 -60.9523 119.526 -39.068 159.501 177.996 -35.2194 2.56906 -0.3695 2.36807 -90.3853 22.1359 -0.931741 -0.563429 10.4652 -0.955661 -0.52188 -12.0708 -0.719355 -0.817407 7.94188 -0.719348 -0.817418 113.987 0.244109 -36.7344 93.636 -21.5423 2.47774 -161.927 -19.7013 -150.899 -10.2172 4.06012 -51.1478 -64.9541 -22.6236 124.902 -125.897 59.5803 98.6134 -101.818 -13.9106 -110.131 -17.686 10.8621 -75.33 -57.0456 -10.7346 -3.10736 -2.80813 -12.8267 -8.142 
-314.049 54.135 324.695 88.3645 60.3592 100.025 -138.996 10.1898 146.298 147.715 -3.46057 -85.2921 164.281 -0.667838 -10.2508 36.9241 -7.78008 129.335 -144.469 -33.8524 158.43 13.9926 29.0167 -58.1359 108.402 -50.4782 156.633 166.776 -38.6415 -3.42013 -0.459253 2.31441 -90.5525 22.241 -1.19935 -0.840082 10.5704 -1.23516 -0.786489 -11.9653 -0.89143 -1.16169 8.04732 -0.891436 -1.1617 113.742 0.593842 -37.1189 93.2414 -21.9264 2.49124 -162.597 -17.6766 -151.016 -9.77925 3.87933 -51.2156 -64.5867 -23.2675 125.385 -130.745 56.6185 105.251 -111.155 -5.46869 -113.096 -21.0114 11.9351 -69.7501 -55.9385 -11.3173 -1.56296 -3.3769 -12.7608 -8.01527 
-317.22 53.7623 327.921 87.6365 60.6926 101.346 -140.263 13.923 145.836 152.374 -5.14893 -83.6 164.367 -6.35531 -5.87057 50.4751 5.34546 119.48 -138.465 -35.7107 159.361 27.0509 35.7851 -53.536 101.835 -62.4172 153.739 157.559 -36.0918 -5.67479 -0.55693 2.25809 -90.7278 22.3506 -1.48678 -1.12797 10.6801 -1.53496 -1.06145 -11.8552 -1.07908 -1.52261 8.15748 -1.07907 -1.52262 113.499 0.942833 -37.5029 92.7904 -22.3622 2.51899 -162.995 -16.0819 -150.985 -9.41061 3.73015 -51.3101 -64.1965 -23.9355 125.894 -134.633 53.1721 110.855 -116.413 2.06137 -114.275 -23.0725 12.1535 -65.2074 -54.6683 -11.9125 0.14779 -4.07954 -12.679 -7.97145 
-320.451 53.437 331.289 86.7947 61.0567 102.795 -142.099 18.7056 145.124 157.995 -7.51354 -82.6013 163.95 -5.88783 -1.32099 59.1236 10.8709 110.354 -132.963 -36.9003 158.279 36.089 47.829 -46.7204 103.519 -73.279 153.698 150.857 -31.8181 -5.35591 -0.661698 2.19958 -90.9093 22.4639 -1.79171 -1.42345 10.7935 -1.85262 -1.34322 -11.7412 -1.28116 -1.89607 8.27147 -1.28116 -1.89606 113.263 1.28408 -37.8805 92.281 -22.8511 2.56487 -163.177 -14.8313 -150.83 -9.09725 3.60556 -51.4216 -63.7867 -24.6213 126.423 -137.642 49.3795 115.459 -119.111 8.64052 -114.755 -24.4067 12.0258 -61.5537 -53.2313 -12.5016 2.01489 -4.91871 -12.5775 -8.01172 
-323.693 53.202 334.728 85.8285 61.4484 104.376 -144.745 25.0414 144.193 133.732 -13.7723 -88.9449 167.898 -30.699 -1.30719 64.7948 13.1591 103.396 -127.927 -37.7729 154.377 29.4209 62.0093 -27.2703 113.762 -84.5141 158.53 145.898 -27.9391 -4.22066 -0.772978 2.13907 -91.0949 22.5799 -2.1118 -1.72307 10.9097 -2.18556 -1.62847 -11.6241 -1.49646 -2.27796 8.3885 -1.49646 -2.27796 113.039 1.61086 -38.2466 91.7114 -23.3946 2.63417 -163.181 -13.864 -150.563 -8.82864 3.50053 -51.5441 -63.3607 -25.32 126.967 -139.912 45.3787 119.169 -120.118 14.3964 -115.068 -25.3353 11.7771 -58.5642 -51.6298 -13.0647 4.02291 -5.89129 -12.4536 -8.13147 
-326.893 53.0793 338.164 84.727 61.8641 106.092 -148.47 33.4452 142.942 15.2105 12.9766 -104.81 26.7588 -29.678 -157.467 68.5153 14.0945 98.4029 -126.579 -36.5301 155.094 178.244 32.433 -168.065 177.372 -7.82792 -168.462 142.092 -25.2222 -3.30743 -0.890045 2.07702 -91.2828 22.6982 -2.44452 -2.02333 11.0282 -2.53119 -1.91379 -11.5048 -1.72364 -2.66425 8.50785 -1.72365 -2.66427 112.829 1.91623 -38.5964 91.0791 -23.9941 2.73378 -163.032 -13.137 -150.186 -8.59686 3.41134 -51.6738 -62.9214 -26.0276 127.521 -141.599 41.3015 122.111 -119.956 19.4321 -115.475 -26.0376 11.5005 -56.0606 -49.872 -13.582 6.14956 -6.98777 -12.3055 -8.32076 
